<mxfile host="www.draw.io" modified="2020-02-26T08:24:20.856Z" agent="Mozilla/5.0 (X11; Ubuntu; Linux x86_64; rv:73.0) Gecko/20100101 Firefox/73.0" etag="inQoI2hllxh7_3fufXil" version="12.7.6" type="github">
  <diagram id="Tl7WLSA5fmz6yIn5-NpD" name="Page-1">
    <mxGraphModel dx="1355" dy="776" grid="1" gridSize="10" guides="1" tooltips="1" connect="1" arrows="1" fold="1" page="1" pageScale="1" pageWidth="850" pageHeight="1100" math="0" shadow="0">
      <root>
        <mxCell id="0" />
        <mxCell id="1" parent="0" />
        <mxCell id="c-7yz3GXWW5uUvkXuUAu-1" value="" style="rounded=1;whiteSpace=wrap;html=1;arcSize=18;" vertex="1" parent="1">
          <mxGeometry x="260" y="80" width="475" height="390" as="geometry" />
        </mxCell>
        <mxCell id="c-7yz3GXWW5uUvkXuUAu-2" value="VM1" style="rounded=0;whiteSpace=wrap;html=1;" vertex="1" parent="1">
          <mxGeometry x="320" y="100" width="120" height="60" as="geometry" />
        </mxCell>
        <mxCell id="c-7yz3GXWW5uUvkXuUAu-3" value="VM2" style="rounded=0;whiteSpace=wrap;html=1;" vertex="1" parent="1">
          <mxGeometry x="550" y="100" width="120" height="60" as="geometry" />
        </mxCell>
        <mxCell id="c-7yz3GXWW5uUvkXuUAu-4" value="" style="endArrow=classic;startArrow=classic;html=1;exitX=0.5;exitY=0;exitDx=0;exitDy=0;" edge="1" parent="1" source="c-7yz3GXWW5uUvkXuUAu-6" target="c-7yz3GXWW5uUvkXuUAu-5">
          <mxGeometry width="50" height="50" relative="1" as="geometry">
            <mxPoint x="400" y="330" as="sourcePoint" />
            <mxPoint x="450" y="280" as="targetPoint" />
          </mxGeometry>
        </mxCell>
        <mxCell id="c-7yz3GXWW5uUvkXuUAu-5" value="&lt;div&gt;vNIC&lt;/div&gt;" style="rounded=0;whiteSpace=wrap;html=1;" vertex="1" parent="1">
          <mxGeometry x="335" y="160" width="90" height="20" as="geometry" />
        </mxCell>
        <mxCell id="c-7yz3GXWW5uUvkXuUAu-6" value="tap" style="rounded=1;whiteSpace=wrap;html=1;arcSize=40;" vertex="1" parent="1">
          <mxGeometry x="330" y="200" width="100" height="20" as="geometry" />
        </mxCell>
        <mxCell id="c-7yz3GXWW5uUvkXuUAu-9" value="&lt;div&gt;vNIC&lt;/div&gt;" style="rounded=0;whiteSpace=wrap;html=1;" vertex="1" parent="1">
          <mxGeometry x="565" y="160" width="90" height="20" as="geometry" />
        </mxCell>
        <mxCell id="c-7yz3GXWW5uUvkXuUAu-11" value="tap" style="rounded=1;whiteSpace=wrap;html=1;arcSize=40;" vertex="1" parent="1">
          <mxGeometry x="560" y="200" width="100" height="20" as="geometry" />
        </mxCell>
        <mxCell id="c-7yz3GXWW5uUvkXuUAu-12" value="" style="endArrow=classic;startArrow=classic;html=1;exitX=0.5;exitY=0;exitDx=0;exitDy=0;entryX=0.5;entryY=1;entryDx=0;entryDy=0;" edge="1" parent="1" target="c-7yz3GXWW5uUvkXuUAu-9">
          <mxGeometry width="50" height="50" relative="1" as="geometry">
            <mxPoint x="609.5" y="200" as="sourcePoint" />
            <mxPoint x="609.5" y="30" as="targetPoint" />
          </mxGeometry>
        </mxCell>
        <mxCell id="c-7yz3GXWW5uUvkXuUAu-15" value="brq" style="shape=parallelogram;perimeter=parallelogramPerimeter;whiteSpace=wrap;html=1;" vertex="1" parent="1">
          <mxGeometry x="320" y="310" width="360" height="30" as="geometry" />
        </mxCell>
        <mxCell id="c-7yz3GXWW5uUvkXuUAu-16" value="brqf1f60d52-5a" style="text;html=1;" vertex="1" parent="1">
          <mxGeometry x="630" y="320" width="120" height="30" as="geometry" />
        </mxCell>
        <mxCell id="c-7yz3GXWW5uUvkXuUAu-17" value="" style="endArrow=classic;startArrow=classic;html=1;exitX=0;exitY=0;exitDx=0;exitDy=0;entryX=0.5;entryY=1;entryDx=0;entryDy=0;" edge="1" parent="1" source="c-7yz3GXWW5uUvkXuUAu-15" target="c-7yz3GXWW5uUvkXuUAu-6">
          <mxGeometry width="50" height="50" relative="1" as="geometry">
            <mxPoint x="400" y="330" as="sourcePoint" />
            <mxPoint x="450" y="280" as="targetPoint" />
          </mxGeometry>
        </mxCell>
        <mxCell id="c-7yz3GXWW5uUvkXuUAu-18" value="" style="endArrow=classic;startArrow=classic;html=1;entryX=0.5;entryY=1;entryDx=0;entryDy=0;exitX=0.804;exitY=0;exitDx=0;exitDy=0;exitPerimeter=0;" edge="1" parent="1" source="c-7yz3GXWW5uUvkXuUAu-15">
          <mxGeometry width="50" height="50" relative="1" as="geometry">
            <mxPoint x="610" y="260" as="sourcePoint" />
            <mxPoint x="609.5" y="220" as="targetPoint" />
          </mxGeometry>
        </mxCell>
        <mxCell id="c-7yz3GXWW5uUvkXuUAu-19" value="tapdcee7890-8e" style="text;html=1;" vertex="1" parent="1">
          <mxGeometry x="630" y="220" width="120" height="30" as="geometry" />
        </mxCell>
        <mxCell id="c-7yz3GXWW5uUvkXuUAu-20" value="tap232c0493-3a" style="text;html=1;" vertex="1" parent="1">
          <mxGeometry x="260" y="220" width="120" height="30" as="geometry" />
        </mxCell>
        <mxCell id="c-7yz3GXWW5uUvkXuUAu-22" value="VXLAN-58" style="rounded=0;whiteSpace=wrap;html=1;" vertex="1" parent="1">
          <mxGeometry x="380" y="340" width="220" height="30" as="geometry" />
        </mxCell>
        <mxCell id="c-7yz3GXWW5uUvkXuUAu-24" value="" style="rounded=1;whiteSpace=wrap;html=1;arcSize=18;" vertex="1" parent="1">
          <mxGeometry x="850" y="80" width="720" height="580" as="geometry" />
        </mxCell>
        <mxCell id="c-7yz3GXWW5uUvkXuUAu-26" value="&lt;div&gt;qDHCP namespace&lt;/div&gt;" style="rounded=0;whiteSpace=wrap;html=1;" vertex="1" parent="1">
          <mxGeometry x="940" y="170" width="210" height="70" as="geometry" />
        </mxCell>
        <mxCell id="c-7yz3GXWW5uUvkXuUAu-27" value="&lt;div&gt;qrouter namespace&lt;/div&gt;" style="rounded=0;whiteSpace=wrap;html=1;" vertex="1" parent="1">
          <mxGeometry x="1270" y="170" width="210" height="70" as="geometry" />
        </mxCell>
        <mxCell id="c-7yz3GXWW5uUvkXuUAu-28" value="dnsmaq" style="shape=process;whiteSpace=wrap;html=1;backgroundOutline=1;" vertex="1" parent="1">
          <mxGeometry x="985" y="130" width="120" height="20" as="geometry" />
        </mxCell>
        <mxCell id="c-7yz3GXWW5uUvkXuUAu-29" value="iptables" style="shape=process;whiteSpace=wrap;html=1;backgroundOutline=1;" vertex="1" parent="1">
          <mxGeometry x="1250" y="130" width="120" height="20" as="geometry" />
        </mxCell>
        <mxCell id="c-7yz3GXWW5uUvkXuUAu-30" value="Routing" style="shape=process;whiteSpace=wrap;html=1;backgroundOutline=1;" vertex="1" parent="1">
          <mxGeometry x="1380" y="130" width="120" height="20" as="geometry" />
        </mxCell>
        <mxCell id="c-7yz3GXWW5uUvkXuUAu-31" value="qr" style="rounded=1;whiteSpace=wrap;html=1;arcSize=50;" vertex="1" parent="1">
          <mxGeometry x="1290" y="220" width="70" height="20" as="geometry" />
        </mxCell>
        <mxCell id="c-7yz3GXWW5uUvkXuUAu-33" value="qg" style="rounded=1;whiteSpace=wrap;html=1;arcSize=50;" vertex="1" parent="1">
          <mxGeometry x="1390" y="220" width="70" height="20" as="geometry" />
        </mxCell>
        <mxCell id="c-7yz3GXWW5uUvkXuUAu-34" value="brq" style="shape=parallelogram;perimeter=parallelogramPerimeter;whiteSpace=wrap;html=1;" vertex="1" parent="1">
          <mxGeometry x="1270" y="500" width="290" height="60" as="geometry" />
        </mxCell>
        <mxCell id="c-7yz3GXWW5uUvkXuUAu-35" value="ens3" style="rounded=1;whiteSpace=wrap;html=1;arcSize=50;" vertex="1" parent="1">
          <mxGeometry x="1335" y="600" width="120" height="60" as="geometry" />
        </mxCell>
        <mxCell id="c-7yz3GXWW5uUvkXuUAu-36" value="" style="endArrow=classic;startArrow=classic;html=1;exitX=0.5;exitY=0;exitDx=0;exitDy=0;entryX=0.438;entryY=1;entryDx=0;entryDy=0;entryPerimeter=0;" edge="1" parent="1" source="c-7yz3GXWW5uUvkXuUAu-35" target="c-7yz3GXWW5uUvkXuUAu-34">
          <mxGeometry width="50" height="50" relative="1" as="geometry">
            <mxPoint x="1290" y="370" as="sourcePoint" />
            <mxPoint x="1360" y="580" as="targetPoint" />
          </mxGeometry>
        </mxCell>
        <mxCell id="c-7yz3GXWW5uUvkXuUAu-37" value="" style="endArrow=classic;startArrow=classic;html=1;entryX=0.5;entryY=1;entryDx=0;entryDy=0;exitX=0.562;exitY=0.126;exitDx=0;exitDy=0;exitPerimeter=0;" edge="1" parent="1" source="c-7yz3GXWW5uUvkXuUAu-38" target="c-7yz3GXWW5uUvkXuUAu-35">
          <mxGeometry width="50" height="50" relative="1" as="geometry">
            <mxPoint x="1360" y="960" as="sourcePoint" />
            <mxPoint x="1395" y="850" as="targetPoint" />
          </mxGeometry>
        </mxCell>
        <mxCell id="c-7yz3GXWW5uUvkXuUAu-38" value="&lt;font style=&quot;font-size: 28px&quot;&gt;Internet&lt;/font&gt;" style="ellipse;shape=cloud;whiteSpace=wrap;html=1;" vertex="1" parent="1">
          <mxGeometry x="1140" y="920" width="450" height="340" as="geometry" />
        </mxCell>
        <mxCell id="c-7yz3GXWW5uUvkXuUAu-39" value="ens4" style="rounded=1;whiteSpace=wrap;html=1;arcSize=50;" vertex="1" parent="1">
          <mxGeometry x="432.5" y="410" width="130" height="60" as="geometry" />
        </mxCell>
        <mxCell id="c-7yz3GXWW5uUvkXuUAu-40" value="" style="endArrow=classic;startArrow=classic;html=1;entryX=0.534;entryY=1;entryDx=0;entryDy=0;exitX=0.5;exitY=0;exitDx=0;exitDy=0;entryPerimeter=0;" edge="1" parent="1" source="c-7yz3GXWW5uUvkXuUAu-39" target="c-7yz3GXWW5uUvkXuUAu-22">
          <mxGeometry width="50" height="50" relative="1" as="geometry">
            <mxPoint x="650" y="660" as="sourcePoint" />
            <mxPoint x="700" y="610" as="targetPoint" />
          </mxGeometry>
        </mxCell>
        <mxCell id="c-7yz3GXWW5uUvkXuUAu-41" value="ens4" style="rounded=1;whiteSpace=wrap;html=1;arcSize=50;" vertex="1" parent="1">
          <mxGeometry x="960" y="600" width="130" height="60" as="geometry" />
        </mxCell>
        <mxCell id="c-7yz3GXWW5uUvkXuUAu-43" value="" style="endArrow=classic;html=1;entryX=0.446;entryY=1.05;entryDx=0;entryDy=0;entryPerimeter=0;" edge="1" parent="1" target="c-7yz3GXWW5uUvkXuUAu-39">
          <mxGeometry width="50" height="50" relative="1" as="geometry">
            <mxPoint x="490" y="800" as="sourcePoint" />
            <mxPoint x="700" y="550" as="targetPoint" />
          </mxGeometry>
        </mxCell>
        <mxCell id="c-7yz3GXWW5uUvkXuUAu-44" value="" style="endArrow=none;html=1;" edge="1" parent="1">
          <mxGeometry width="50" height="50" relative="1" as="geometry">
            <mxPoint x="490" y="800" as="sourcePoint" />
            <mxPoint x="1020" y="800" as="targetPoint" />
          </mxGeometry>
        </mxCell>
        <mxCell id="c-7yz3GXWW5uUvkXuUAu-45" value="" style="endArrow=classic;html=1;entryX=0.5;entryY=1;entryDx=0;entryDy=0;" edge="1" parent="1" target="c-7yz3GXWW5uUvkXuUAu-41">
          <mxGeometry width="50" height="50" relative="1" as="geometry">
            <mxPoint x="1025" y="800" as="sourcePoint" />
            <mxPoint x="700" y="550" as="targetPoint" />
          </mxGeometry>
        </mxCell>
        <mxCell id="c-7yz3GXWW5uUvkXuUAu-47" value="brq" style="shape=parallelogram;perimeter=parallelogramPerimeter;whiteSpace=wrap;html=1;" vertex="1" parent="1">
          <mxGeometry x="890" y="500" width="290" height="60" as="geometry" />
        </mxCell>
        <mxCell id="c-7yz3GXWW5uUvkXuUAu-49" value="" style="endArrow=classic;startArrow=classic;html=1;entryX=0.459;entryY=0.983;entryDx=0;entryDy=0;entryPerimeter=0;" edge="1" parent="1" source="c-7yz3GXWW5uUvkXuUAu-41" target="c-7yz3GXWW5uUvkXuUAu-47">
          <mxGeometry width="50" height="50" relative="1" as="geometry">
            <mxPoint x="1020" y="600" as="sourcePoint" />
            <mxPoint x="1070" y="550" as="targetPoint" />
          </mxGeometry>
        </mxCell>
        <mxCell id="c-7yz3GXWW5uUvkXuUAu-50" value="VXLAN-58" style="rounded=0;whiteSpace=wrap;html=1;" vertex="1" parent="1">
          <mxGeometry x="950" y="470" width="220" height="30" as="geometry" />
        </mxCell>
        <mxCell id="c-7yz3GXWW5uUvkXuUAu-52" value="tap" style="rounded=1;whiteSpace=wrap;html=1;arcSize=40;" vertex="1" parent="1">
          <mxGeometry x="995" y="450" width="105" height="20" as="geometry" />
        </mxCell>
        <mxCell id="c-7yz3GXWW5uUvkXuUAu-53" value="" style="endArrow=classic;startArrow=classic;html=1;entryX=0.5;entryY=1;entryDx=0;entryDy=0;exitX=0.5;exitY=0;exitDx=0;exitDy=0;" edge="1" parent="1" source="c-7yz3GXWW5uUvkXuUAu-52" target="c-7yz3GXWW5uUvkXuUAu-31">
          <mxGeometry width="50" height="50" relative="1" as="geometry">
            <mxPoint x="1000" y="480" as="sourcePoint" />
            <mxPoint x="1050" y="430" as="targetPoint" />
          </mxGeometry>
        </mxCell>
        <mxCell id="c-7yz3GXWW5uUvkXuUAu-55" value="" style="endArrow=classic;startArrow=classic;html=1;entryX=0.5;entryY=1;entryDx=0;entryDy=0;exitX=0.572;exitY=0;exitDx=0;exitDy=0;exitPerimeter=0;" edge="1" parent="1" source="c-7yz3GXWW5uUvkXuUAu-34" target="c-7yz3GXWW5uUvkXuUAu-33">
          <mxGeometry width="50" height="50" relative="1" as="geometry">
            <mxPoint x="1000" y="480" as="sourcePoint" />
            <mxPoint x="1050" y="430" as="targetPoint" />
          </mxGeometry>
        </mxCell>
        <mxCell id="c-7yz3GXWW5uUvkXuUAu-56" value="" style="endArrow=none;html=1;entryX=0.5;entryY=1;entryDx=0;entryDy=0;exitX=0.5;exitY=0;exitDx=0;exitDy=0;" edge="1" parent="1" source="c-7yz3GXWW5uUvkXuUAu-52" target="c-7yz3GXWW5uUvkXuUAu-26">
          <mxGeometry width="50" height="50" relative="1" as="geometry">
            <mxPoint x="1000" y="480" as="sourcePoint" />
            <mxPoint x="1050" y="430" as="targetPoint" />
          </mxGeometry>
        </mxCell>
        <mxCell id="c-7yz3GXWW5uUvkXuUAu-58" value="ns" style="rounded=1;whiteSpace=wrap;html=1;arcSize=50;" vertex="1" parent="1">
          <mxGeometry x="1010" y="220" width="70" height="20" as="geometry" />
        </mxCell>
      </root>
    </mxGraphModel>
  </diagram>
</mxfile>
